<?xml version="1.0" standalone="no"?><!DOCTYPE svg PUBLIC "-//W3C//DTD SVG 1.1//EN" "http://www.w3.org/Graphics/SVG/1.1/DTD/svg11.dtd"><svg width="200" height="200" viewBox="0 0 200 200" version="1.1" xmlns="http://www.w3.org/2000/svg" xmlns:xlink="http://www.w3.org/1999/xlink"><defs><style type="text/css"><![CDATA[
@font-face { font-family: ifont; src: url("//at.alicdn.com/t/font_1442373896_4754455.eot?#iefix") format("embedded-opentype"), url("//at.alicdn.com/t/font_1442373896_4754455.woff") format("woff"), url("//at.alicdn.com/t/font_1442373896_4754455.ttf") format("truetype"), url("//at.alicdn.com/t/font_1442373896_4754455.svg#ifont") format("svg"); }

]]></style></defs><g class="transform-group"><g transform="scale(0.1953125, 0.1953125)"><path d="M994.372267 272.9984c-21.674667 45.8752-117.3504 266.786133-130.389333 287.232-1.536 2.423467-2.935467 4.8128-4.266667 7.0656-12.6976 21.777067-26.112 38.434133-72.465067 38.434133L345.4976 605.730133c9.284267 28.125867 28.535467 62.839467 68.642133 62.839467l382.429867 0c11.332267 0 20.48 9.181867 20.48 20.48 0 11.298133-9.147733 20.48-20.48 20.48L414.139733 709.5296c-56.763733 0-98.167467-44.4416-113.664-112.5376-8.533333-37.546667-112.0256-383.8976-119.432533-411.0336-7.953067-17.237333-26.4192-29.627733-44.373333-29.627733L42.496 156.330667c-11.298133 0-20.48-9.181867-20.48-20.48 0-11.298133 9.181867-20.445867 20.48-20.445867l94.173867 0c35.1232 0 68.266667 1.877333 82.5344 35.157333 0.375467 0.887467 0.682667 1.7408 0.955733 2.696533 4.061867 14.882133 89.873067 319.1808 114.346667 411.5456l452.744533 0c26.555733 0 29.218133-4.539733 37.102933-18.1248 1.604267-2.730667 3.242667-5.5296 5.085867-8.430933 12.151467-19.080533 107.1104-238.6944 127.351467-281.3952 8.430933-22.084267 6.894933-34.0992 4.573867-37.512533-1.536-2.184533-6.417067-3.515733-13.1072-3.515733-44.373333 0.648533-606.685867 0.034133-626.210133 0-11.332267-0.034133-20.48-9.181867-20.445867-20.48 0.034133-11.332267 9.181867-20.445867 20.48-20.445867l0.034133 0c4.8128 0 581.5296 0.682667 625.8688 0 26.965333 0 40.516267 11.5712 47.172267 21.2992C1007.4112 214.050133 1007.138133 239.9232 994.372267 272.9984zM403.285333 729.838933c52.736 0 95.6416 42.9056 95.6416 95.6416 0 52.736-42.9056 95.675733-95.6416 95.675733s-95.6416-42.939733-95.6416-95.675733C307.677867 772.778667 350.549333 729.838933 403.285333 729.838933zM403.285333 881.8688c31.061333 0 56.32-25.2928 56.32-56.354133 0-31.061333-25.258667-56.32-56.32-56.32-31.0272 0-56.285867 25.258667-56.285867 56.32C346.999467 856.576 372.258133 881.8688 403.285333 881.8688zM792.405333 729.838933c52.736 0 95.6416 42.9056 95.6416 95.6416 0 52.736-42.9056 95.675733-95.6416 95.675733-52.736 0-95.6416-42.939733-95.6416-95.675733C696.797867 772.778667 739.669333 729.838933 792.405333 729.838933zM792.405333 881.8688c31.061333 0 56.32-25.2928 56.32-56.354133 0-31.061333-25.258667-56.32-56.32-56.32-31.0272 0-56.285867 25.258667-56.285867 56.32C736.119467 856.576 761.378133 881.8688 792.405333 881.8688z" fill="#a9b7b7"></path></g></g></svg>