<?xml version="1.0" standalone="no"?><!DOCTYPE svg PUBLIC "-//W3C//DTD SVG 1.1//EN" "http://www.w3.org/Graphics/SVG/1.1/DTD/svg11.dtd"><svg width="200" height="200" viewBox="0 0 200 200" version="1.1" xmlns="http://www.w3.org/2000/svg" xmlns:xlink="http://www.w3.org/1999/xlink"><defs><style type="text/css"><![CDATA[
@font-face { font-family: ifont; src: url("//at.alicdn.com/t/font_1442373896_4754455.eot?#iefix") format("embedded-opentype"), url("//at.alicdn.com/t/font_1442373896_4754455.woff") format("woff"), url("//at.alicdn.com/t/font_1442373896_4754455.ttf") format("truetype"), url("//at.alicdn.com/t/font_1442373896_4754455.svg#ifont") format("svg"); }

]]></style></defs><g class="transform-group"><g transform="scale(0.1953125, 0.1953125)"><path d="M396.752138 305.458405 287.945286 416.174811C344.615515 541.954 464.756458 682.0441 604.165239 729.117888L698.237858 635.347912C698.237858 635.347912 921.256821 674.278085 971.388452 698.614211 1014.836384 719.702465 1029.193221 766.399677 1022.39166 824.017592 1015.081197 885.94629 933.984961 1022.477734 787.776846 1023.984806 641.568756 1025.48727 426.313607 915.362992 272.077614 752.842686 117.841596 590.319052-19.685765 384.35043 2.327238 209.428974 24.340215 34.506237 176.709507 3.230976 214.840653 0.42368 253.376432-2.414336 283.978362 8.896767 307.21315 37.705725 337.128258 74.796793 396.752138 305.458405 396.752138 305.458405L396.752138 305.458405ZM273.211003 73.857786C255.076528 50.132988 223.90789 46.178812 192.739253 53.522171 165.076254 60.039931 64.195265 101.888247 49.930229 213.947885 34.062582 338.597602 127.001787 549.486288 293.811782 710.84845 460.624055 872.210611 621.298934 966.409899 759.441719 977.665706 897.584529 988.923817 964.966565 867.324596 974.788669 830.797239 984.610748 794.267578 976.488765 757.362877 956.654194 742.675903 931.359988 723.946944 714.105531 685.058244 714.105531 685.058244L615.499306 782.217659C453.422392 729.493952 300.790162 581.872845 235.808664 401.488861L343.482126 293.032166C343.482126 293.031142 291.345504 97.582839 273.211003 73.857786L273.211003 73.857786Z" fill="#a9b7b7"></path></g></g></svg>