<?xml version="1.0" standalone="no"?><!DOCTYPE svg PUBLIC "-//W3C//DTD SVG 1.1//EN" "http://www.w3.org/Graphics/SVG/1.1/DTD/svg11.dtd"><svg width="200" height="200" viewBox="0 0 200 200" version="1.1" xmlns="http://www.w3.org/2000/svg" xmlns:xlink="http://www.w3.org/1999/xlink"><defs><style type="text/css"><![CDATA[
@font-face { font-family: ifont; src: url(http://at.alicdn.com/t/font_1442373896_4754455.eot?#iefix) format(embedded-opentype), url(http://at.alicdn.com/t/font_1442373896_4754455.woff) format(woff), url(http://at.alicdn.com/t/font_1442373896_4754455.ttf) format(truetype), url(http://at.alicdn.com/t/font_1442373896_4754455.svg#ifont) format(svg); }

]]></style></defs><g class="transform-group"><g transform="scale(0.1953125, 0.1953125)"><path d="M836.313364 191.548594 187.737802 191.548594c-44.589544 0-81.072457 36.001959-81.072457 80.005149l0 480.030891c0 44.00319 36.482913 80.005149 81.072457 80.005149l648.575562 0c44.589544 0 81.071434-36.001959 81.071434-80.005149L917.384797 271.553743C917.384797 227.550553 880.902908 191.548594 836.313364 191.548594zM849.113901 751.584634c0 6.250354-5.981225 11.735275-12.800537 11.735275L187.737802 763.319909c-6.819313 0-12.800537-5.484921-12.800537-11.735275L174.937265 271.553743c0-6.250354 5.981225-11.735275 12.800537-11.735275l648.575562 0c6.819313 0 12.800537 5.484921 12.800537 11.735275L849.113901 751.584634zM213.3399 319.557036 213.3399 392.70501 512.025583 575.573921 810.712289 392.70501 810.712289 319.557036 512.025583 502.425947Z" fill="#ffffff"></path></g></g></svg>